<?xml version="1.0" standalone="no"?>
<!DOCTYPE svg PUBLIC "-//W3C//DTD SVG 20010904//EN"
 "http://www.w3.org/TR/2001/REC-SVG-20010904/DTD/svg10.dtd">
<svg version="1.0" xmlns="http://www.w3.org/2000/svg"
 width="512.000000pt" height="512.000000pt" viewBox="0 0 512.000000 512.000000"
 preserveAspectRatio="xMidYMid meet">

<g transform="translate(0.000000,512.000000) scale(0.100000,-0.100000)"
fill="#000000" stroke="none">
<path d="M641 5109 c-157 -27 -294 -100 -416 -223 -76 -76 -98 -106 -137 -186
-91 -185 -83 25 -83 -2140 0 -2165 -8 -1955 82 -2140 40 -81 61 -109 142 -191
82 -81 110 -102 191 -142 170 -82 150 -80 720 -84 l505 -4 20 53 c18 47 25 54
60 65 22 7 62 15 88 19 33 4 58 14 80 34 l32 29 -3 243 c-2 133 -4 244 -5 245
-2 1 -39 -4 -82 -12 -249 -44 -481 8 -625 142 -78 71 -113 122 -161 234 -72
166 -138 254 -256 340 -124 90 -142 128 -76 156 58 24 140 11 238 -37 98 -47
169 -114 257 -242 33 -49 81 -107 106 -128 86 -77 206 -120 329 -120 61 0 188
24 244 46 35 15 38 19 53 86 20 88 68 189 113 239 20 22 31 39 25 39 -46 0
-317 55 -397 81 -457 146 -697 465 -746 991 -23 248 5 449 85 623 37 80 101
181 142 226 23 24 24 28 11 65 -53 147 -45 368 19 568 23 74 41 82 142 67 138
-21 321 -98 503 -212 l78 -49 103 25 c194 47 307 60 538 60 231 0 344 -13 538
-60 l103 -25 78 49 c182 114 365 191 503 212 101 15 119 7 142 -67 64 -200 72
-421 19 -568 -13 -37 -12 -41 11 -65 81 -87 165 -253 203 -400 55 -214 37
-538 -43 -786 -93 -287 -292 -498 -577 -615 -101 -41 -258 -83 -372 -100 -38
-5 -85 -12 -102 -15 l-33 -6 41 -51 c51 -65 73 -107 101 -199 23 -72 23 -83
23 -527 l0 -454 32 -28 c22 -20 47 -30 80 -34 26 -4 66 -12 88 -19 35 -11 42
-18 60 -65 l20 -53 505 4 c570 4 550 2 720 84 81 40 109 61 191 142 81 82 102
110 142 191 90 185 82 -25 82 2140 0 2165 8 1955 -82 2140 -40 81 -61 109
-142 191 -82 81 -110 102 -191 142 -185 90 29 81 -2110 83 -1089 1 -1918 -2
-1949 -7z"/>
</g>
</svg>
